<?xml version="1.0" encoding="UTF-8" standalone="no"?>
<!DOCTYPE svg PUBLIC "-//W3C//DTD SVG 1.1//EN"
 "http://www.w3.org/Graphics/SVG/1.1/DTD/svg11.dtd">
<!-- Generated by graphviz version 12.1.0 (20240811.2233)
 -->
<!-- Pages: 1 -->
<svg width="74pt" height="720pt"
 viewBox="0.00 0.00 73.54 720.00" xmlns="http://www.w3.org/2000/svg" xmlns:xlink="http://www.w3.org/1999/xlink">
<g id="graph0" class="graph" transform="scale(0.0860827 0.0860827) rotate(0) translate(4 8360.05)">
<polygon fill="white" stroke="none" points="-4,4 -4,-8360.05 850.33,-8360.05 850.33,4 -4,4"/>
<!-- docker&#45;desktop -->
<g id="node1" class="node">
<title>docker&#45;desktop</title>
<polygon fill="lightblue" stroke="lightblue" points="377.86,-36 278.61,-36 278.61,0 377.86,0 377.86,-36"/>
<text text-anchor="middle" x="328.24" y="-12.95" font-family="Times New Roman,serif" font-size="14.00">docker&#45;desktop</text>
</g>
<!-- kubernetes -->
<g id="node2" class="node">
<title>kubernetes</title>
<ellipse fill="lightgreen" stroke="lightgreen" cx="328.24" cy="-72" rx="78.99" ry="18"/>
<text text-anchor="middle" x="328.24" y="-66.95" font-family="Times New Roman,serif" font-size="14.00">default/kubernetes</text>
</g>
<!-- kube&#45;dns -->
<g id="node3" class="node">
<title>kube&#45;dns</title>
<ellipse fill="lightgreen" stroke="lightgreen" cx="328.24" cy="-126" rx="94.34" ry="18"/>
<text text-anchor="middle" x="328.24" y="-120.95" font-family="Times New Roman,serif" font-size="14.00">kube&#45;system/kube&#45;dns</text>
</g>
<!-- fluentd -->
<g id="node4" class="node">
<title>fluentd</title>
<ellipse fill="lightgreen" stroke="lightgreen" cx="328.24" cy="-180" rx="67.73" ry="18"/>
<text text-anchor="middle" x="328.24" y="-174.95" font-family="Times New Roman,serif" font-size="14.00">logging/fluentd</text>
</g>
<!-- grafana -->
<g id="node5" class="node">
<title>grafana</title>
<ellipse fill="lightgreen" stroke="lightgreen" cx="328.24" cy="-234" rx="82.57" ry="18"/>
<text text-anchor="middle" x="328.24" y="-228.95" font-family="Times New Roman,serif" font-size="14.00">monitoring/grafana</text>
</g>
<!-- prometheus&#45;alertmanager -->
<g id="node6" class="node">
<title>prometheus&#45;alertmanager</title>
<ellipse fill="lightgreen" stroke="lightgreen" cx="328.24" cy="-288" rx="150.13" ry="18"/>
<text text-anchor="middle" x="328.24" y="-282.95" font-family="Times New Roman,serif" font-size="14.00">monitoring/prometheus&#45;alertmanager</text>
</g>
<!-- prometheus&#45;alertmanager&#45;headless -->
<g id="node7" class="node">
<title>prometheus&#45;alertmanager&#45;headless</title>
<ellipse fill="lightgreen" stroke="lightgreen" cx="328.24" cy="-342" rx="184.42" ry="18"/>
<text text-anchor="middle" x="328.24" y="-336.95" font-family="Times New Roman,serif" font-size="14.00">monitoring/prometheus&#45;alertmanager&#45;headless</text>
</g>
<!-- prometheus&#45;kube&#45;state&#45;metrics -->
<g id="node8" class="node">
<title>prometheus&#45;kube&#45;state&#45;metrics</title>
<ellipse fill="lightgreen" stroke="lightgreen" cx="328.24" cy="-396" rx="170.09" ry="18"/>
<text text-anchor="middle" x="328.24" y="-390.95" font-family="Times New Roman,serif" font-size="14.00">monitoring/prometheus&#45;kube&#45;state&#45;metrics</text>
</g>
<!-- prometheus&#45;prometheus&#45;node&#45;exporter -->
<g id="node9" class="node">
<title>prometheus&#45;prometheus&#45;node&#45;exporter</title>
<ellipse fill="lightgreen" stroke="lightgreen" cx="328.24" cy="-450" rx="199.78" ry="18"/>
<text text-anchor="middle" x="328.24" y="-444.95" font-family="Times New Roman,serif" font-size="14.00">monitoring/prometheus&#45;prometheus&#45;node&#45;exporter</text>
</g>
<!-- prometheus&#45;prometheus&#45;pushgateway -->
<g id="node10" class="node">
<title>prometheus&#45;prometheus&#45;pushgateway</title>
<ellipse fill="lightgreen" stroke="lightgreen" cx="328.24" cy="-504" rx="196.19" ry="18"/>
<text text-anchor="middle" x="328.24" y="-498.95" font-family="Times New Roman,serif" font-size="14.00">monitoring/prometheus&#45;prometheus&#45;pushgateway</text>
</g>
<!-- prometheus&#45;server -->
<g id="node11" class="node">
<title>prometheus&#45;server</title>
<ellipse fill="lightgreen" stroke="lightgreen" cx="328.24" cy="-558" rx="124.03" ry="18"/>
<text text-anchor="middle" x="328.24" y="-552.95" font-family="Times New Roman,serif" font-size="14.00">monitoring/prometheus&#45;server</text>
</g>
<!-- coredns&#45;76f75df574&#45;2bkzt -->
<g id="node12" class="node">
<title>coredns&#45;76f75df574&#45;2bkzt</title>
<ellipse fill="lightcoral" stroke="lightcoral" cx="328.24" cy="-810" rx="216.15" ry="216.15"/>
<text text-anchor="middle" x="328.24" y="-804.95" font-family="Times New Roman,serif" font-size="14.00">kube&#45;system/coredns&#45;76f75df574&#45;2bkzt (IP: 10.1.0.22)</text>
</g>
<!-- 10.1.0.22 -->
<g id="node13" class="node">
<title>10.1.0.22</title>
<ellipse fill="none" stroke="black" cx="786.28" cy="-810" rx="46.23" ry="18"/>
<text text-anchor="middle" x="786.28" y="-804.95" font-family="Times New Roman,serif" font-size="14.00">10.1.0.22</text>
</g>
<!-- coredns&#45;76f75df574&#45;2bkzt&#45;&gt;10.1.0.22 -->
<g id="edge1" class="edge">
<title>coredns&#45;76f75df574&#45;2bkzt&#45;&gt;10.1.0.22</title>
<path fill="none" stroke="black" d="M544.57,-810C612.39,-810 681.72,-810 728.44,-810"/>
<polygon fill="black" stroke="black" points="728.31,-813.5 738.31,-810 728.31,-806.5 728.31,-813.5"/>
<text text-anchor="middle" x="691.35" y="-813.2" font-family="Times New Roman,serif" font-size="14.00">has IP</text>
</g>
<!-- coredns&#45;76f75df574&#45;97k22 -->
<g id="node14" class="node">
<title>coredns&#45;76f75df574&#45;97k22</title>
<ellipse fill="lightcoral" stroke="lightcoral" cx="328.24" cy="-1263" rx="218.71" ry="218.71"/>
<text text-anchor="middle" x="328.24" y="-1257.95" font-family="Times New Roman,serif" font-size="14.00">kube&#45;system/coredns&#45;76f75df574&#45;97k22 (IP: 10.1.0.20)</text>
</g>
<!-- 10.1.0.20 -->
<g id="node15" class="node">
<title>10.1.0.20</title>
<ellipse fill="none" stroke="black" cx="786.28" cy="-1263" rx="46.23" ry="18"/>
<text text-anchor="middle" x="786.28" y="-1257.95" font-family="Times New Roman,serif" font-size="14.00">10.1.0.20</text>
</g>
<!-- coredns&#45;76f75df574&#45;97k22&#45;&gt;10.1.0.20 -->
<g id="edge2" class="edge">
<title>coredns&#45;76f75df574&#45;97k22&#45;&gt;10.1.0.20</title>
<path fill="none" stroke="black" d="M547.24,-1263C614.17,-1263 682.24,-1263 728.35,-1263"/>
<polygon fill="black" stroke="black" points="728.07,-1266.5 738.07,-1263 728.07,-1259.5 728.07,-1266.5"/>
<text text-anchor="middle" x="691.35" y="-1266.2" font-family="Times New Roman,serif" font-size="14.00">has IP</text>
</g>
<!-- etcd&#45;docker&#45;desktop -->
<g id="node16" class="node">
<title>etcd&#45;docker&#45;desktop</title>
<ellipse fill="lightcoral" stroke="lightcoral" cx="328.24" cy="-4331" rx="206.94" ry="206.94"/>
<text text-anchor="middle" x="328.24" y="-4325.95" font-family="Times New Roman,serif" font-size="14.00">kube&#45;system/etcd&#45;docker&#45;desktop (IP: 192.168.65.3)</text>
</g>
<!-- 192.168.65.3 -->
<g id="node17" class="node">
<title>192.168.65.3</title>
<ellipse fill="none" stroke="black" cx="786.28" cy="-3063" rx="60.05" ry="18"/>
<text text-anchor="middle" x="786.28" y="-3057.95" font-family="Times New Roman,serif" font-size="14.00">192.168.65.3</text>
</g>
<!-- etcd&#45;docker&#45;desktop&#45;&gt;192.168.65.3 -->
<g id="edge3" class="edge">
<title>etcd&#45;docker&#45;desktop&#45;&gt;192.168.65.3</title>
<path fill="none" stroke="black" d="M516.89,-4245.8C570.28,-4212.51 622.96,-4169.11 656.48,-4115 766.74,-3937 782.75,-3244.05 784.95,-3092.42"/>
<polygon fill="black" stroke="black" points="788.44,-3092.88 785.08,-3082.83 781.44,-3092.78 788.44,-3092.88"/>
<text text-anchor="middle" x="691.35" y="-4075.45" font-family="Times New Roman,serif" font-size="14.00">has IP</text>
</g>
<!-- kube&#45;apiserver&#45;docker&#45;desktop -->
<g id="node18" class="node">
<title>kube&#45;apiserver&#45;docker&#45;desktop</title>
<ellipse fill="lightcoral" stroke="lightcoral" cx="328.24" cy="-3860" rx="246.35" ry="246.35"/>
<text text-anchor="middle" x="328.24" y="-3854.95" font-family="Times New Roman,serif" font-size="14.00">kube&#45;system/kube&#45;apiserver&#45;docker&#45;desktop (IP: 192.168.65.3)</text>
</g>
<!-- kube&#45;apiserver&#45;docker&#45;desktop&#45;&gt;192.168.65.3 -->
<g id="edge4" class="edge">
<title>kube&#45;apiserver&#45;docker&#45;desktop&#45;&gt;192.168.65.3</title>
<path fill="none" stroke="black" d="M538.54,-3731.17C583.06,-3695.21 625.82,-3652.72 656.48,-3605 766.35,-3433.99 782.63,-3178.47 784.94,-3092.46"/>
<polygon fill="black" stroke="black" points="788.44,-3092.61 785.16,-3082.54 781.44,-3092.46 788.44,-3092.61"/>
<text text-anchor="middle" x="691.35" y="-3569.45" font-family="Times New Roman,serif" font-size="14.00">has IP</text>
</g>
<!-- kube&#45;controller&#45;manager&#45;docker&#45;desktop -->
<g id="node19" class="node">
<title>kube&#45;controller&#45;manager&#45;docker&#45;desktop</title>
<ellipse fill="lightcoral" stroke="lightcoral" cx="328.24" cy="-3312" rx="283.71" ry="283.71"/>
<text text-anchor="middle" x="328.24" y="-3306.95" font-family="Times New Roman,serif" font-size="14.00">kube&#45;system/kube&#45;controller&#45;manager&#45;docker&#45;desktop (IP: 192.168.65.3)</text>
</g>
<!-- kube&#45;controller&#45;manager&#45;docker&#45;desktop&#45;&gt;192.168.65.3 -->
<g id="edge5" class="edge">
<title>kube&#45;controller&#45;manager&#45;docker&#45;desktop&#45;&gt;192.168.65.3</title>
<path fill="none" stroke="black" d="M577.61,-3176.39C643.5,-3140.41 707.11,-3105.68 746.19,-3084.34"/>
<polygon fill="black" stroke="black" points="747.63,-3087.54 754.73,-3079.68 744.28,-3081.4 747.63,-3087.54"/>
<text text-anchor="middle" x="691.35" y="-3126.37" font-family="Times New Roman,serif" font-size="14.00">has IP</text>
</g>
<!-- kube&#45;proxy&#45;dtxt7 -->
<g id="node20" class="node">
<title>kube&#45;proxy&#45;dtxt7</title>
<ellipse fill="lightcoral" stroke="lightcoral" cx="328.24" cy="-2814" rx="196.19" ry="196.19"/>
<text text-anchor="middle" x="328.24" y="-2808.95" font-family="Times New Roman,serif" font-size="14.00">kube&#45;system/kube&#45;proxy&#45;dtxt7 (IP: 192.168.65.3)</text>
</g>
<!-- kube&#45;proxy&#45;dtxt7&#45;&gt;192.168.65.3 -->
<g id="edge6" class="edge">
<title>kube&#45;proxy&#45;dtxt7&#45;&gt;192.168.65.3</title>
<path fill="none" stroke="black" d="M501,-2907.78C590.42,-2956.61 692.16,-3012.16 746.39,-3041.76"/>
<polygon fill="black" stroke="black" points="744.48,-3044.71 754.94,-3046.43 747.84,-3038.57 744.48,-3044.71"/>
<text text-anchor="middle" x="691.35" y="-3018.57" font-family="Times New Roman,serif" font-size="14.00">has IP</text>
</g>
<!-- kube&#45;scheduler&#45;docker&#45;desktop -->
<g id="node21" class="node">
<title>kube&#45;scheduler&#45;docker&#45;desktop</title>
<ellipse fill="lightcoral" stroke="lightcoral" cx="328.24" cy="-2352" rx="247.89" ry="247.89"/>
<text text-anchor="middle" x="328.24" y="-2346.95" font-family="Times New Roman,serif" font-size="14.00">kube&#45;system/kube&#45;scheduler&#45;docker&#45;desktop (IP: 192.168.65.3)</text>
</g>
<!-- kube&#45;scheduler&#45;docker&#45;desktop&#45;&gt;192.168.65.3 -->
<g id="edge7" class="edge">
<title>kube&#45;scheduler&#45;docker&#45;desktop&#45;&gt;192.168.65.3</title>
<path fill="none" stroke="black" d="M538.34,-2484.09C582.46,-2520.06 625.1,-2562.2 656.48,-2609 750.48,-2749.16 776.6,-2957.69 783.22,-3033.83"/>
<polygon fill="black" stroke="black" points="779.69,-3033.69 784,-3043.37 786.67,-3033.12 779.69,-3033.69"/>
<text text-anchor="middle" x="691.35" y="-2702.35" font-family="Times New Roman,serif" font-size="14.00">has IP</text>
</g>
<!-- storage&#45;provisioner -->
<g id="node22" class="node">
<title>storage&#45;provisioner</title>
<ellipse fill="lightcoral" stroke="lightcoral" cx="328.24" cy="-4745" rx="189.54" ry="189.54"/>
<text text-anchor="middle" x="328.24" y="-4739.95" font-family="Times New Roman,serif" font-size="14.00">kube&#45;system/storage&#45;provisioner (IP: 10.1.0.14)</text>
</g>
<!-- 10.1.0.14 -->
<g id="node23" class="node">
<title>10.1.0.14</title>
<ellipse fill="none" stroke="black" cx="786.28" cy="-4745" rx="46.23" ry="18"/>
<text text-anchor="middle" x="786.28" y="-4739.95" font-family="Times New Roman,serif" font-size="14.00">10.1.0.14</text>
</g>
<!-- storage&#45;provisioner&#45;&gt;10.1.0.14 -->
<g id="edge8" class="edge">
<title>storage&#45;provisioner&#45;&gt;10.1.0.14</title>
<path fill="none" stroke="black" d="M518.02,-4745C593.65,-4745 675.23,-4745 728.09,-4745"/>
<polygon fill="black" stroke="black" points="728.06,-4748.5 738.06,-4745 728.06,-4741.5 728.06,-4748.5"/>
<text text-anchor="middle" x="691.35" y="-4748.2" font-family="Times New Roman,serif" font-size="14.00">has IP</text>
</g>
<!-- vpnkit&#45;controller -->
<g id="node24" class="node">
<title>vpnkit&#45;controller</title>
<ellipse fill="lightcoral" stroke="lightcoral" cx="328.24" cy="-5133" rx="180.33" ry="180.33"/>
<text text-anchor="middle" x="328.24" y="-5127.95" font-family="Times New Roman,serif" font-size="14.00">kube&#45;system/vpnkit&#45;controller (IP: 10.1.0.23)</text>
</g>
<!-- 10.1.0.23 -->
<g id="node25" class="node">
<title>10.1.0.23</title>
<ellipse fill="none" stroke="black" cx="786.28" cy="-5133" rx="46.23" ry="18"/>
<text text-anchor="middle" x="786.28" y="-5127.95" font-family="Times New Roman,serif" font-size="14.00">10.1.0.23</text>
</g>
<!-- vpnkit&#45;controller&#45;&gt;10.1.0.23 -->
<g id="edge9" class="edge">
<title>vpnkit&#45;controller&#45;&gt;10.1.0.23</title>
<path fill="none" stroke="black" d="M508.82,-5133C587.25,-5133 673.68,-5133 728.67,-5133"/>
<polygon fill="black" stroke="black" points="728.39,-5136.5 738.39,-5133 728.39,-5129.5 728.39,-5136.5"/>
<text text-anchor="middle" x="691.35" y="-5136.2" font-family="Times New Roman,serif" font-size="14.00">has IP</text>
</g>
<!-- fluentd&#45;kkwqs -->
<g id="node26" class="node">
<title>fluentd&#45;kkwqs</title>
<ellipse fill="lightcoral" stroke="lightcoral" cx="328.24" cy="-5484" rx="152.18" ry="152.18"/>
<text text-anchor="middle" x="328.24" y="-5478.95" font-family="Times New Roman,serif" font-size="14.00">logging/fluentd&#45;kkwqs (IP: 10.1.0.17)</text>
</g>
<!-- 10.1.0.17 -->
<g id="node27" class="node">
<title>10.1.0.17</title>
<ellipse fill="none" stroke="black" cx="786.28" cy="-5484" rx="46.23" ry="18"/>
<text text-anchor="middle" x="786.28" y="-5478.95" font-family="Times New Roman,serif" font-size="14.00">10.1.0.17</text>
</g>
<!-- fluentd&#45;kkwqs&#45;&gt;10.1.0.17 -->
<g id="edge10" class="edge">
<title>fluentd&#45;kkwqs&#45;&gt;10.1.0.17</title>
<path fill="none" stroke="black" d="M480.78,-5484C565.64,-5484 666.48,-5484 728.17,-5484"/>
<polygon fill="black" stroke="black" points="728.08,-5487.5 738.08,-5484 728.08,-5480.5 728.08,-5487.5"/>
<text text-anchor="middle" x="691.35" y="-5487.2" font-family="Times New Roman,serif" font-size="14.00">has IP</text>
</g>
<!-- grafana&#45;57c84ff8c7&#45;nkfw9 -->
<g id="node28" class="node">
<title>grafana&#45;57c84ff8c7&#45;nkfw9</title>
<ellipse fill="lightcoral" stroke="lightcoral" cx="328.24" cy="-5866" rx="211.55" ry="211.55"/>
<text text-anchor="middle" x="328.24" y="-5860.95" font-family="Times New Roman,serif" font-size="14.00">monitoring/grafana&#45;57c84ff8c7&#45;nkfw9 (IP: 10.1.0.21)</text>
</g>
<!-- 10.1.0.21 -->
<g id="node29" class="node">
<title>10.1.0.21</title>
<ellipse fill="none" stroke="black" cx="786.28" cy="-5866" rx="46.23" ry="18"/>
<text text-anchor="middle" x="786.28" y="-5860.95" font-family="Times New Roman,serif" font-size="14.00">10.1.0.21</text>
</g>
<!-- grafana&#45;57c84ff8c7&#45;nkfw9&#45;&gt;10.1.0.21 -->
<g id="edge11" class="edge">
<title>grafana&#45;57c84ff8c7&#45;nkfw9&#45;&gt;10.1.0.21</title>
<path fill="none" stroke="black" d="M540.24,-5866C609.39,-5866 680.64,-5866 728.36,-5866"/>
<polygon fill="black" stroke="black" points="728.16,-5869.5 738.16,-5866 728.16,-5862.5 728.16,-5869.5"/>
<text text-anchor="middle" x="691.35" y="-5869.2" font-family="Times New Roman,serif" font-size="14.00">has IP</text>
</g>
<!-- prometheus&#45;alertmanager&#45;0 -->
<g id="node30" class="node">
<title>prometheus&#45;alertmanager&#45;0</title>
<ellipse fill="lightcoral" stroke="lightcoral" cx="328.24" cy="-6311" rx="215.13" ry="215.13"/>
<text text-anchor="middle" x="328.24" y="-6305.95" font-family="Times New Roman,serif" font-size="14.00">monitoring/prometheus&#45;alertmanager&#45;0 (IP: 10.1.0.19)</text>
</g>
<!-- 10.1.0.19 -->
<g id="node31" class="node">
<title>10.1.0.19</title>
<ellipse fill="none" stroke="black" cx="786.28" cy="-6311" rx="46.23" ry="18"/>
<text text-anchor="middle" x="786.28" y="-6305.95" font-family="Times New Roman,serif" font-size="14.00">10.1.0.19</text>
</g>
<!-- prometheus&#45;alertmanager&#45;0&#45;&gt;10.1.0.19 -->
<g id="edge12" class="edge">
<title>prometheus&#45;alertmanager&#45;0&#45;&gt;10.1.0.19</title>
<path fill="none" stroke="black" d="M543.57,-6311C611.57,-6311 681.2,-6311 728.15,-6311"/>
<polygon fill="black" stroke="black" points="728.07,-6314.5 738.07,-6311 728.07,-6307.5 728.07,-6314.5"/>
<text text-anchor="middle" x="691.35" y="-6314.2" font-family="Times New Roman,serif" font-size="14.00">has IP</text>
</g>
<!-- prometheus&#45;kube&#45;state&#45;metrics&#45;79c867c577&#45;zmwqf -->
<g id="node32" class="node">
<title>prometheus&#45;kube&#45;state&#45;metrics&#45;79c867c577&#45;zmwqf</title>
<ellipse fill="lightcoral" stroke="lightcoral" cx="328.24" cy="-6849" rx="304.7" ry="304.7"/>
<text text-anchor="middle" x="328.24" y="-6843.95" font-family="Times New Roman,serif" font-size="14.00">monitoring/prometheus&#45;kube&#45;state&#45;metrics&#45;79c867c577&#45;zmwqf (IP: 10.1.0.15)</text>
</g>
<!-- 10.1.0.15 -->
<g id="node33" class="node">
<title>10.1.0.15</title>
<ellipse fill="none" stroke="black" cx="786.28" cy="-6849" rx="46.23" ry="18"/>
<text text-anchor="middle" x="786.28" y="-6843.95" font-family="Times New Roman,serif" font-size="14.00">10.1.0.15</text>
</g>
<!-- prometheus&#45;kube&#45;state&#45;metrics&#45;79c867c577&#45;zmwqf&#45;&gt;10.1.0.15 -->
<g id="edge13" class="edge">
<title>prometheus&#45;kube&#45;state&#45;metrics&#45;79c867c577&#45;zmwqf&#45;&gt;10.1.0.15</title>
<path fill="none" stroke="black" d="M633.43,-6849C669.27,-6849 702.28,-6849 728.3,-6849"/>
<polygon fill="black" stroke="black" points="728.24,-6852.5 738.24,-6849 728.24,-6845.5 728.24,-6852.5"/>
<text text-anchor="middle" x="691.35" y="-6852.2" font-family="Times New Roman,serif" font-size="14.00">has IP</text>
</g>
<!-- prometheus&#45;prometheus&#45;node&#45;exporter&#45;fjg79 -->
<g id="node34" class="node">
<title>prometheus&#45;prometheus&#45;node&#45;exporter&#45;fjg79</title>
<ellipse fill="lightcoral" stroke="lightcoral" cx="328.24" cy="-1793" rx="293.44" ry="293.44"/>
<text text-anchor="middle" x="328.24" y="-1787.95" font-family="Times New Roman,serif" font-size="14.00">monitoring/prometheus&#45;prometheus&#45;node&#45;exporter&#45;fjg79 (IP: 192.168.65.3)</text>
</g>
<!-- prometheus&#45;prometheus&#45;node&#45;exporter&#45;fjg79&#45;&gt;192.168.65.3 -->
<g id="edge14" class="edge">
<title>prometheus&#45;prometheus&#45;node&#45;exporter&#45;fjg79&#45;&gt;192.168.65.3</title>
<path fill="none" stroke="black" d="M562.77,-1969.45C599.33,-2007.07 632.79,-2049.37 656.48,-2095 744.82,-2265.15 777.6,-2890.14 784.04,-3033.54"/>
<polygon fill="black" stroke="black" points="780.53,-3033.48 784.47,-3043.32 787.53,-3033.17 780.53,-3033.48"/>
<text text-anchor="middle" x="691.35" y="-2250.93" font-family="Times New Roman,serif" font-size="14.00">has IP</text>
</g>
<!-- prometheus&#45;prometheus&#45;pushgateway&#45;57c548bd6f&#45;99fm6 -->
<g id="node35" class="node">
<title>prometheus&#45;prometheus&#45;pushgateway&#45;57c548bd6f&#45;99fm6</title>
<ellipse fill="lightcoral" stroke="lightcoral" cx="328.24" cy="-7500" rx="328.24" ry="328.24"/>
<text text-anchor="middle" x="328.24" y="-7494.95" font-family="Times New Roman,serif" font-size="14.00">monitoring/prometheus&#45;prometheus&#45;pushgateway&#45;57c548bd6f&#45;99fm6 (IP: 10.1.0.16)</text>
</g>
<!-- 10.1.0.16 -->
<g id="node36" class="node">
<title>10.1.0.16</title>
<ellipse fill="none" stroke="black" cx="786.28" cy="-7500" rx="46.23" ry="18"/>
<text text-anchor="middle" x="786.28" y="-7494.95" font-family="Times New Roman,serif" font-size="14.00">10.1.0.16</text>
</g>
<!-- prometheus&#45;prometheus&#45;pushgateway&#45;57c548bd6f&#45;99fm6&#45;&gt;10.1.0.16 -->
<g id="edge15" class="edge">
<title>prometheus&#45;prometheus&#45;pushgateway&#45;57c548bd6f&#45;99fm6&#45;&gt;10.1.0.16</title>
<path fill="none" stroke="black" d="M656.73,-7500C683.54,-7500 708.07,-7500 728.35,-7500"/>
<polygon fill="black" stroke="black" points="728.27,-7503.5 738.27,-7500 728.27,-7496.5 728.27,-7503.5"/>
<text text-anchor="middle" x="691.35" y="-7503.2" font-family="Times New Roman,serif" font-size="14.00">has IP</text>
</g>
<!-- prometheus&#45;server&#45;65b79f9866&#45;w7lvq -->
<g id="node37" class="node">
<title>prometheus&#45;server&#45;65b79f9866&#45;w7lvq</title>
<ellipse fill="lightcoral" stroke="lightcoral" cx="328.24" cy="-8101" rx="255.05" ry="255.05"/>
<text text-anchor="middle" x="328.24" y="-8095.95" font-family="Times New Roman,serif" font-size="14.00">monitoring/prometheus&#45;server&#45;65b79f9866&#45;w7lvq (IP: 10.1.0.18)</text>
</g>
<!-- 10.1.0.18 -->
<g id="node38" class="node">
<title>10.1.0.18</title>
<ellipse fill="none" stroke="black" cx="786.28" cy="-8101" rx="46.23" ry="18"/>
<text text-anchor="middle" x="786.28" y="-8095.95" font-family="Times New Roman,serif" font-size="14.00">10.1.0.18</text>
</g>
<!-- prometheus&#45;server&#45;65b79f9866&#45;w7lvq&#45;&gt;10.1.0.18 -->
<g id="edge16" class="edge">
<title>prometheus&#45;server&#45;65b79f9866&#45;w7lvq&#45;&gt;10.1.0.18</title>
<path fill="none" stroke="black" d="M583.6,-8101C638.21,-8101 690.78,-8101 728.55,-8101"/>
<polygon fill="black" stroke="black" points="728.26,-8104.5 738.26,-8101 728.26,-8097.5 728.26,-8104.5"/>
<text text-anchor="middle" x="691.35" y="-8104.2" font-family="Times New Roman,serif" font-size="14.00">has IP</text>
</g>
</g>
</svg>
